<svg width="512" height="512" viewBox="0 0 512 512" fill="none" xmlns="http://www.w3.org/2000/svg">
  <defs>
    <linearGradient id="pro-gradient" x1="0" y1="0" x2="512" y2="512" gradientUnits="userSpaceOnUse">
      <stop offset="0%" stop-color="#312E81"/> <!-- Dark Indigo -->
      <stop offset="100%" stop-color="#4338ca"/> <!-- Indigo 700 -->
    </linearGradient>
    <linearGradient id="gold-gradient" x1="100" y1="100" x2="400" y2="400" gradientUnits="userSpaceOnUse">
      <stop offset="0%" stop-color="#fbbf24"/>
      <stop offset="100%" stop-color="#d97706"/>
    </linearGradient>
    <filter id="glass-glow" x="-20%" y="-20%" width="140%" height="140%">
      <feGaussianBlur in="SourceGraphic" stdDeviation="15" result="blur"/>
      <feColorMatrix in="blur" type="matrix" values="1 0 0 0 0  0 1 0 0 0  0 0 1 0 0  0 0 0 18 -7" result="glow"/>
      <feComposite in="SourceGraphic" in2="glow" operator="over"/>
    </filter>
  </defs>
  
  <!-- Base Squircle with Deep Gradient -->
  <rect x="32" y="32" width="448" height="448" rx="128" fill="url(#pro-gradient)"/>
  
  <!-- Subtle 'Glass' Shine/Reflect at top -->
  <path d="M64 160C64 89.29 121.29 32 192 32H320C390.71 32 448 89.29 448 160V200C448 200 350 150 256 150C162 150 64 200 64 200V160Z" fill="white" fill-opacity="0.05"/>

  <!-- The H Logo Mark -->
  <g transform="translate(136, 136)" filter="drop-shadow(0px 10px 20px rgba(0,0,0,0.25))">
    <!-- Left Bar -->
    <rect x="0" y="0" width="70" height="240" rx="35" fill="white"/>
    <!-- Right Bar -->
    <rect x="170" y="0" width="70" height="240" rx="35" fill="white"/>
    
    <!-- Privacy Crossbar: A stylized Lock Body -->
    <rect x="45" y="100" width="150" height="40" rx="16" fill="white" fill-opacity="0.9"/>
    
    <!-- The Keyhole (Negative Space) -->
    <circle cx="120" cy="120" r="12" fill="#4338ca"/>
    <path d="M116 125L110 145H130L124 125" fill="#4338ca"/>
    
    <!-- Lock Shackle (The 'Privacy' indicator above the H) -->
    <path d="M120 40C142.091 40 160 57.9086 160 80V95H172V80C172 51.2812 148.719 28 120 28C91.2812 28 68 51.2812 68 80V95H80V80C80 57.9086 97.9086 40 120 40Z" fill="url(#gold-gradient)"/>
  </g>
</svg>
